# xmcd CD database file
#
# Track frame offsets:
#	150
#	13262
#	27355
#	38560
#	52637
#	66680
#	80670
#	95860
#	111395
#	123920
#	138080
#	153892
#	168857
#	182185
#	195350
#	207830
#	220595
#	233817
#	247452
#	260192
#
# Disc length: 3686 seconds
#
# Revision: 6
# Processed by: cddbd v1.5PL3 Copyright (c) Steve Scherf et al.
# Submitted via: CDex 1.50Beta3
#
DISCID=1f0e6414
DTITLE=Malando And His Orchestra - Best Of Tango
DYEAR=1900
DGENRE=
TTITLE0=碧空
TTITLE1=奥様お手をどうぞ
TTITLE2=バラのタンゴ
TTITLE3=真珠採りのタンゴ
TTITLE4=夜のタンゴ
TTITLE5=小さな喫茶店
TTITLE6=オレ・グワッパ
TTITLE7=ジェラシー
TTITLE8=夜のヴァイオリン
TTITLE9=小雨降る径
TTITLE10=イタリーの庭
TTITLE11=ジプシーの嘆き
TTITLE12=ブルー・タンゴ
TTITLE13=カプリ島
TTITLE14=ラ・ヴィオレテーラ（花売り娘）
TTITLE15=モンテ・カルロの一夜
TTITLE16=月下の蘭
TTITLE17=カベシータ
TTITLE18=ヴィオレッタに捧げし歌
TTITLE19=マドンナの宝石
EXTD=
EXTT0=
EXTT1=
EXTT2=
EXTT3=
EXTT4=
EXTT5=
EXTT6=
EXTT7=
EXTT8=
EXTT9=
EXTT10=
EXTT11=
EXTT12=
EXTT13=
EXTT14=
EXTT15=
EXTT16=
EXTT17=
EXTT18=
EXTT19=
PLAYORDER=
